<?xml version="1.0" standalone="no"?><!DOCTYPE svg PUBLIC "-//W3C//DTD SVG 1.1//EN" "http://www.w3.org/Graphics/SVG/1.1/DTD/svg11.dtd"><svg class="icon" height="512" viewBox="0 0 1028 1024" version="1.1" xmlns="http://www.w3.org/2000/svg"><path d="M1.191128 136.037303c3.831258-12.1886 6.367011-24.992207 11.789511-36.426631 8.555863-18.037818 22.077831-32.128745 41.470507-38.895869 6.588045-2.299369 13.945617-3.347235 20.953218-3.352351 274.437419-0.161682 548.875862-0.24764 823.313282 0.007163 33.059953 0.031722 61.119009 12.523221 81.567737 39.421848 6.644327 8.739035 9.881045 18.943444 9.881045 30.027897 0.008186 128.679731 0.007163 257.359462 0.002047 386.040217 0 0.789992-0.086981 1.578961-0.181125 3.154853-4.560876-3.309372-8.600889-6.600325-12.981662-9.349949-10.582009-6.646374-21.233604-13.192464-32.041764-19.460214-4.411473-2.558265-6.019087-5.554506-6.009877-10.846022 0.192382-104.055914-0.264013-208.114898 0.388856-312.166719 0.199545-31.784914-24.588001-54.747905-53.148477-55.723116-2.381234-0.081864-4.761444-0.186242-7.142677-0.187265-256.168334-0.008186-512.337691 0.026606-768.506025-0.077771-18.697851-0.007163-34.739199 5.199419-46.861284 20.074198-8.603959 10.55745-11.146874 22.988574-11.149944 36.177967-0.01535 78.638011-0.007163 157.275-0.007163 235.913011 0 92.14156 0.01535 184.281073-0.010233 276.422633-0.00614 21.580504 7.767917 39.020712 26.597775 50.652634 8.31027 5.134951 17.378809 7.334036 27.170826 7.328919 128.679731-0.060375 257.359462-0.046049 386.039193-0.024559 9.03477 0.002047 8.578376-1.197268 9.56996 8.295943 1.460258 13.981433 3.586688 27.895327 5.519714 42.520419-2.111081 0.110517-4.208858 0.318248-6.307659 0.318248-143.771451 0.01535-287.544949 0.008186-431.316399 0.021489-17.226337 0.002047-30.308283-8.540514-41.320081-20.621667-14.411221-15.809057-22.759353-34.652218-26.075889-55.758931-0.26913-1.710968-0.795109-3.382027-1.201361-5.071506C1.191128 514.978844 1.191128 325.507562 1.191128 136.037303zM495.479745 532.370956c0 49.003064 0 97.602945 0 147.117662-11.949146 1.482771-23.831778 3.419889-35.793204 4.353145-31.250748 2.438539-62.506613 5.349845-93.814666 6.318916-24.739451 0.765433-49.631374-0.119727-74.325799-1.990331-32.025391-2.426259-63.956637-6.26775-95.856162-10.099009-12.955056-1.556449-25.713638-4.725628-38.57455-7.092535-8.245801-1.517563-12.31856-6.599302-14.286378-14.607696-5.025457-20.446681-4.00829-40.953737-1.648546-61.541635 0.338714-2.955308 0.802272-5.895267 1.144056-8.849552 2.717901-23.439852 18.694781-35.551704 38.521339-43.395346 14.517645-5.743818 29.680996-9.898441 44.659129-14.425547 16.387225-4.951779 31.315216-12.418844 43.824111-24.249287 8.971325-8.485255 13.628392-18.86772 12.968359-31.381731-0.218988-4.16281-0.480954-8.324596-0.778736-12.482289-0.581238-8.102538-3.515057-15.361873-10.087753-20.140713-16.779152-12.193717-26.045189-28.884864-30.921243-48.580438-0.546446-2.204202-2.246157-4.76963-4.158716-5.891174-18.907629-11.082406-25.631774-40.59558-13.640672-59.32106 2.080382-3.248997 3.429099-7.579629 3.466961-11.426237 0.282433-28.405957 3.584642-56.400544 14.548344-82.709747 16.59905-39.83117 47.025013-62.160735 89.926102-67.444065 33.146934-4.081968 63.8584 3.007497 92.40148 20.006659 22.324448 13.295817 35.429931 33.525558 42.946115 57.839313 7.319709 23.678282 10.662851 47.934732 10.927887 72.705905 0.038886 3.568269 2.295276 7.130398 3.609201 10.662851 1.909489 5.136997 5.229095 10.148128 5.606695 15.381315 1.306762 18.137079-1.197268 35.056424-19.736507 44.725644-1.325182 0.691755-2.255367 2.636037-2.821255 4.197602-1.684362 4.65195-3.03308 9.426697-4.626367 14.114462-4.334725 12.750395-11.124362 24.087605-22.920012 30.90487-19.175735 11.082406-20.286022 49.807383-4.562922 66.777893 11.787464 12.722766 26.942629 18.467607 42.482557 23.931039C480.864886 528.208147 487.963561 530.088984 495.479745 532.370956zM785.814226 478.871485c133.750213 0.347924 242.171552 110.421902 241.739716 245.425665-0.431835 135.495974-109.070114 245.172909-242.419192 244.73698-133.528156-0.435928-242.119363-110.895693-241.560638-245.713214C544.135908 588.30385 652.921543 478.524584 785.814226 478.871485zM588.688613 723.664747c-0.477884 109.37199 87.686085 199.451588 196.692754 199.571315 109.221564 0.118704 196.508559-88.601944 197.057051-199.063755 0.544399-109.465111-87.98796-199.38712-196.552561-199.73095C677.81142 524.097526 589.168544 613.652168 588.688613 723.664747zM681.921018 345.873402c44.864814 0.001023 89.729627-0.048095 134.592394 0.027629 15.869433 0.025583 26.027793 13.366426 21.039175 27.501354-2.843768 8.055466-8.836249 12.4608-17.192567 13.673417-1.951445 0.282433-3.961218 0.222057-5.944386 0.224104-88.537476 0.00921-177.075974 0.01228-265.61345 0.001023-12.632715-0.001023-20.634969-5.315052-23.261797-15.329127-3.454682-13.18223 5.64865-25.591865 19.407002-26.009374 10.116405-0.305969 20.247136-0.085958 30.371728-0.085958C610.852402 345.869309 646.38671 345.871355 681.921018 345.873402zM681.638585 283.679921c-44.861744-0.001023-89.725534 0.049119-134.587278-0.028653-15.508205-0.026606-25.325805-12.234649-21.451568-26.332738 2.207271-8.032954 8.891508-13.726629 17.546631-14.812357 1.959631-0.246617 3.961218-0.211824 5.944386-0.211824 88.534406-0.010233 177.067788 0.028653 265.602194-0.061398 9.992585-0.010233 18.053168 2.965541 22.328541 12.532431 5.909593 13.224186-3.188622 27.919886-17.821901 28.788673-6.330172 0.375553-12.700253 0.12075-19.051915 0.121773C760.643963 283.682991 721.141274 283.679921 681.638585 283.679921zM582.104661 449.494411c11.697413 0.001023 23.39278-0.068562 35.08917 0.020466 12.752442 0.095167 21.587668 8.356318 21.793352 20.203134 0.211824 12.096503-8.634658 21.019733-21.570271 21.120017-23.590278 0.182149-47.182602 0.163729-70.771857 0.007163-12.895705-0.085958-22.141276-9.100262-21.983687-20.901029 0.155543-11.870352 9.377578-20.355607 22.355147-20.433378C558.710858 449.438129 570.408271 449.494411 582.104661 449.494411zM757.597581 785.081539c4.018523-5.517667 7.518231-10.305717 11.001565-15.106046 36.244482-49.971112 72.516594-99.921757 108.697631-149.937894 5.164626-7.139607 11.379165-12.027941 20.580734-12.288884 18.756179-0.530073 30.741142 18.805298 21.848611 35.395138-1.12052 2.087545-2.496867 4.054339-3.891633 5.977132-44.396139 61.223387-88.840374 122.410957-133.185348 183.669136-6.862291 9.481955-15.321964 15.177678-27.341718 12.020778-4.045129-1.061169-8.213056-3.348258-11.273764-6.204305-33.8172-31.573089-67.452251-63.342654-101.072977-95.126544-7.257288-6.859221-9.674337-15.383362-7.008624-25.001417 2.487657-8.972349 8.610098-14.598486 17.61417-16.796548 9.146311-2.233877 16.715707 1.038656 23.321148 7.28901 15.863293 15.014972 31.759331 29.996175 47.650253 44.981471C735.361137 764.160043 746.199996 774.350127 757.597581 785.081539z" /></svg>